<?xml version='1.0' encoding='UTF-8'?>
<svg width="44.4mm" height="44.4mm" version="1.1" viewBox="0 0 44.4 44.4" xmlns="http://www.w3.org/2000/svg"><path d="M4.8,4.8H6V6H4.8zM6,4.8H7.2V6H6zM7.2,4.8H8.4V6H7.2zM8.4,4.8H9.6V6H8.4zM9.6,4.8H10.8V6H9.6zM10.8,4.8H12V6H10.8zM12,4.8H13.2V6H12zM14.4,4.8H15.6V6H14.4zM16.8,4.8H18V6H16.8zM19.2,4.8H20.4V6H19.2zM20.4,4.8H21.6V6H20.4zM22.8,4.8H24V6H22.8zM24,4.8H25.2V6H24zM26.4,4.8H27.6V6H26.4zM31.2,4.8H32.4V6H31.2zM32.4,4.8H33.6V6H32.4zM33.6,4.8H34.8V6H33.6zM34.8,4.8H36V6H34.8zM36,4.8H37.2V6H36zM37.2,4.8H38.4V6H37.2zM38.4,4.8H39.6V6H38.4zM4.8,6H6V7.2H4.8zM12,6H13.2V7.2H12zM20.4,6H21.6V7.2H20.4zM27.6,6H28.8V7.2H27.6zM28.8,6H30V7.2H28.8zM31.2,6H32.4V7.2H31.2zM38.4,6H39.6V7.2H38.4zM4.8,7.2H6V8.4H4.8zM7.2,7.2H8.4V8.4H7.2zM8.4,7.2H9.6V8.4H8.4zM9.6,7.2H10.8V8.4H9.6zM12,7.2H13.2V8.4H12zM15.6,7.2H16.8V8.4H15.6zM22.8,7.2H24V8.4H22.8zM24,7.2H25.2V8.4H24zM25.2,7.2H26.4V8.4H25.2zM26.4,7.2H27.6V8.4H26.4zM27.6,7.2H28.8V8.4H27.6zM31.2,7.2H32.4V8.4H31.2zM33.6,7.2H34.8V8.4H33.6zM34.8,7.2H36V8.4H34.8zM36,7.2H37.2V8.4H36zM38.4,7.2H39.6V8.4H38.4zM4.8,8.4H6V9.6H4.8zM7.2,8.4H8.4V9.6H7.2zM8.4,8.4H9.6V9.6H8.4zM9.6,8.4H10.8V9.6H9.6zM12,8.4H13.2V9.6H12zM14.4,8.4H15.6V9.6H14.4zM16.8,8.4H18V9.6H16.8zM19.2,8.4H20.4V9.6H19.2zM20.4,8.4H21.6V9.6H20.4zM21.6,8.4H22.8V9.6H21.6zM24,8.4H25.2V9.6H24zM26.4,8.4H27.6V9.6H26.4zM28.8,8.4H30V9.6H28.8zM31.2,8.4H32.4V9.6H31.2zM33.6,8.4H34.8V9.6H33.6zM34.8,8.4H36V9.6H34.8zM36,8.4H37.2V9.6H36zM38.4,8.4H39.6V9.6H38.4zM4.8,9.6H6V10.8H4.8zM7.2,9.6H8.4V10.8H7.2zM8.4,9.6H9.6V10.8H8.4zM9.6,9.6H10.8V10.8H9.6zM12,9.6H13.2V10.8H12zM14.4,9.6H15.6V10.8H14.4zM19.2,9.6H20.4V10.8H19.2zM21.6,9.6H22.8V10.8H21.6zM22.8,9.6H24V10.8H22.8zM24,9.6H25.2V10.8H24zM26.4,9.6H27.6V10.8H26.4zM31.2,9.6H32.4V10.8H31.2zM33.6,9.6H34.8V10.8H33.6zM34.8,9.6H36V10.8H34.8zM36,9.6H37.2V10.8H36zM38.4,9.6H39.6V10.8H38.4zM4.8,10.8H6V12H4.8zM12,10.8H13.2V12H12zM14.4,10.8H15.6V12H14.4zM16.8,10.8H18V12H16.8zM19.2,10.8H20.4V12H19.2zM20.4,10.8H21.6V12H20.4zM25.2,10.8H26.4V12H25.2zM27.6,10.8H28.8V12H27.6zM31.2,10.8H32.4V12H31.2zM38.4,10.8H39.6V12H38.4zM4.8,12H6V13.2H4.8zM6,12H7.2V13.2H6zM7.2,12H8.4V13.2H7.2zM8.4,12H9.6V13.2H8.4zM9.6,12H10.8V13.2H9.6zM10.8,12H12V13.2H10.8zM12,12H13.2V13.2H12zM14.4,12H15.6V13.2H14.4zM16.8,12H18V13.2H16.8zM19.2,12H20.4V13.2H19.2zM21.6,12H22.8V13.2H21.6zM24,12H25.2V13.2H24zM26.4,12H27.6V13.2H26.4zM28.8,12H30V13.2H28.8zM31.2,12H32.4V13.2H31.2zM32.4,12H33.6V13.2H32.4zM33.6,12H34.8V13.2H33.6zM34.8,12H36V13.2H34.8zM36,12H37.2V13.2H36zM37.2,12H38.4V13.2H37.2zM38.4,12H39.6V13.2H38.4zM14.4,13.2H15.6V14.4H14.4zM15.6,13.2H16.8V14.4H15.6zM18,13.2H19.2V14.4H18zM19.2,13.2H20.4V14.4H19.2zM21.6,13.2H22.8V14.4H21.6zM25.2,13.2H26.4V14.4H25.2zM26.4,13.2H27.6V14.4H26.4zM27.6,13.2H28.8V14.4H27.6zM28.8,13.2H30V14.4H28.8zM4.8,14.4H6V15.6H4.8zM9.6,14.4H10.8V15.6H9.6zM12,14.4H13.2V15.6H12zM13.2,14.4H14.4V15.6H13.2zM14.4,14.4H15.6V15.6H14.4zM16.8,14.4H18V15.6H16.8zM18,14.4H19.2V15.6H18zM22.8,14.4H24V15.6H22.8zM25.2,14.4H26.4V15.6H25.2zM28.8,14.4H30V15.6H28.8zM30,14.4H31.2V15.6H30zM31.2,14.4H32.4V15.6H31.2zM32.4,14.4H33.6V15.6H32.4zM33.6,14.4H34.8V15.6H33.6zM34.8,14.4H36V15.6H34.8zM38.4,14.4H39.6V15.6H38.4zM6,15.6H7.2V16.8H6zM7.2,15.6H8.4V16.8H7.2zM8.4,15.6H9.6V16.8H8.4zM10.8,15.6H12V16.8H10.8zM16.8,15.6H18V16.8H16.8zM18,15.6H19.2V16.8H18zM19.2,15.6H20.4V16.8H19.2zM21.6,15.6H22.8V16.8H21.6zM22.8,15.6H24V16.8H22.8zM25.2,15.6H26.4V16.8H25.2zM26.4,15.6H27.6V16.8H26.4zM31.2,15.6H32.4V16.8H31.2zM32.4,15.6H33.6V16.8H32.4zM33.6,15.6H34.8V16.8H33.6zM34.8,15.6H36V16.8H34.8zM36,15.6H37.2V16.8H36zM37.2,15.6H38.4V16.8H37.2zM38.4,15.6H39.6V16.8H38.4zM4.8,16.8H6V18H4.8zM7.2,16.8H8.4V18H7.2zM9.6,16.8H10.8V18H9.6zM10.8,16.8H12V18H10.8zM12,16.8H13.2V18H12zM14.4,16.8H15.6V18H14.4zM16.8,16.8H18V18H16.8zM19.2,16.8H20.4V18H19.2zM21.6,16.8H22.8V18H21.6zM22.8,16.8H24V18H22.8zM26.4,16.8H27.6V18H26.4zM28.8,16.8H30V18H28.8zM30,16.8H31.2V18H30zM31.2,16.8H32.4V18H31.2zM32.4,16.8H33.6V18H32.4zM33.6,16.8H34.8V18H33.6zM38.4,16.8H39.6V18H38.4zM7.2,18H8.4V19.2H7.2zM14.4,18H15.6V19.2H14.4zM15.6,18H16.8V19.2H15.6zM24,18H25.2V19.2H24zM25.2,18H26.4V19.2H25.2zM26.4,18H27.6V19.2H26.4zM27.6,18H28.8V19.2H27.6zM31.2,18H32.4V19.2H31.2zM32.4,18H33.6V19.2H32.4zM34.8,18H36V19.2H34.8zM37.2,18H38.4V19.2H37.2zM38.4,18H39.6V19.2H38.4zM4.8,19.2H6V20.4H4.8zM10.8,19.2H12V20.4H10.8zM12,19.2H13.2V20.4H12zM13.2,19.2H14.4V20.4H13.2zM15.6,19.2H16.8V20.4H15.6zM16.8,19.2H18V20.4H16.8zM19.2,19.2H20.4V20.4H19.2zM20.4,19.2H21.6V20.4H20.4zM21.6,19.2H22.8V20.4H21.6zM22.8,19.2H24V20.4H22.8zM25.2,19.2H26.4V20.4H25.2zM28.8,19.2H30V20.4H28.8zM30,19.2H31.2V20.4H30zM32.4,19.2H33.6V20.4H32.4zM37.2,19.2H38.4V20.4H37.2zM4.8,20.4H6V21.6H4.8zM6,20.4H7.2V21.6H6zM7.2,20.4H8.4V21.6H7.2zM8.4,20.4H9.6V21.6H8.4zM9.6,20.4H10.8V21.6H9.6zM10.8,20.4H12V21.6H10.8zM13.2,20.4H14.4V21.6H13.2zM14.4,20.4H15.6V21.6H14.4zM15.6,20.4H16.8V21.6H15.6zM21.6,20.4H22.8V21.6H21.6zM22.8,20.4H24V21.6H22.8zM24,20.4H25.2V21.6H24zM25.2,20.4H26.4V21.6H25.2zM26.4,20.4H27.6V21.6H26.4zM31.2,20.4H32.4V21.6H31.2zM32.4,20.4H33.6V21.6H32.4zM33.6,20.4H34.8V21.6H33.6zM34.8,20.4H36V21.6H34.8zM36,20.4H37.2V21.6H36zM37.2,20.4H38.4V21.6H37.2zM38.4,20.4H39.6V21.6H38.4zM4.8,21.6H6V22.8H4.8zM6,21.6H7.2V22.8H6zM7.2,21.6H8.4V22.8H7.2zM8.4,21.6H9.6V22.8H8.4zM9.6,21.6H10.8V22.8H9.6zM12,21.6H13.2V22.8H12zM14.4,21.6H15.6V22.8H14.4zM16.8,21.6H18V22.8H16.8zM18,21.6H19.2V22.8H18zM19.2,21.6H20.4V22.8H19.2zM20.4,21.6H21.6V22.8H20.4zM21.6,21.6H22.8V22.8H21.6zM22.8,21.6H24V22.8H22.8zM25.2,21.6H26.4V22.8H25.2zM26.4,21.6H27.6V22.8H26.4zM30,21.6H31.2V22.8H30zM31.2,21.6H32.4V22.8H31.2zM32.4,21.6H33.6V22.8H32.4zM34.8,21.6H36V22.8H34.8zM36,21.6H37.2V22.8H36zM38.4,21.6H39.6V22.8H38.4zM4.8,22.8H6V24H4.8zM9.6,22.8H10.8V24H9.6zM13.2,22.8H14.4V24H13.2zM15.6,22.8H16.8V24H15.6zM16.8,22.8H18V24H16.8zM20.4,22.8H21.6V24H20.4zM25.2,22.8H26.4V24H25.2zM27.6,22.8H28.8V24H27.6zM30,22.8H31.2V24H30zM32.4,22.8H33.6V24H32.4zM37.2,22.8H38.4V24H37.2zM38.4,22.8H39.6V24H38.4zM4.8,24H6V25.2H4.8zM6,24H7.2V25.2H6zM7.2,24H8.4V25.2H7.2zM9.6,24H10.8V25.2H9.6zM10.8,24H12V25.2H10.8zM12,24H13.2V25.2H12zM13.2,24H14.4V25.2H13.2zM14.4,24H15.6V25.2H14.4zM15.6,24H16.8V25.2H15.6zM18,24H19.2V25.2H18zM19.2,24H20.4V25.2H19.2zM20.4,24H21.6V25.2H20.4zM22.8,24H24V25.2H22.8zM25.2,24H26.4V25.2H25.2zM26.4,24H27.6V25.2H26.4zM27.6,24H28.8V25.2H27.6zM30,24H31.2V25.2H30zM32.4,24H33.6V25.2H32.4zM37.2,24H38.4V25.2H37.2zM4.8,25.2H6V26.4H4.8zM7.2,25.2H8.4V26.4H7.2zM9.6,25.2H10.8V26.4H9.6zM10.8,25.2H12V26.4H10.8zM16.8,25.2H18V26.4H16.8zM18,25.2H19.2V26.4H18zM20.4,25.2H21.6V26.4H20.4zM21.6,25.2H22.8V26.4H21.6zM22.8,25.2H24V26.4H22.8zM24,25.2H25.2V26.4H24zM25.2,25.2H26.4V26.4H25.2zM26.4,25.2H27.6V26.4H26.4zM31.2,25.2H32.4V26.4H31.2zM32.4,25.2H33.6V26.4H32.4zM33.6,25.2H34.8V26.4H33.6zM34.8,25.2H36V26.4H34.8zM37.2,25.2H38.4V26.4H37.2zM38.4,25.2H39.6V26.4H38.4zM7.2,26.4H8.4V27.6H7.2zM8.4,26.4H9.6V27.6H8.4zM9.6,26.4H10.8V27.6H9.6zM10.8,26.4H12V27.6H10.8zM12,26.4H13.2V27.6H12zM14.4,26.4H15.6V27.6H14.4zM16.8,26.4H18V27.6H16.8zM18,26.4H19.2V27.6H18zM22.8,26.4H24V27.6H22.8zM26.4,26.4H27.6V27.6H26.4zM28.8,26.4H30V27.6H28.8zM30,26.4H31.2V27.6H30zM32.4,26.4H33.6V27.6H32.4zM33.6,26.4H34.8V27.6H33.6zM36,26.4H37.2V27.6H36zM38.4,26.4H39.6V27.6H38.4zM8.4,27.6H9.6V28.8H8.4zM16.8,27.6H18V28.8H16.8zM18,27.6H19.2V28.8H18zM19.2,27.6H20.4V28.8H19.2zM21.6,27.6H22.8V28.8H21.6zM25.2,27.6H26.4V28.8H25.2zM30,27.6H31.2V28.8H30zM31.2,27.6H32.4V28.8H31.2zM32.4,27.6H33.6V28.8H32.4zM37.2,27.6H38.4V28.8H37.2zM38.4,27.6H39.6V28.8H38.4zM4.8,28.8H6V30H4.8zM6,28.8H7.2V30H6zM7.2,28.8H8.4V30H7.2zM8.4,28.8H9.6V30H8.4zM9.6,28.8H10.8V30H9.6zM10.8,28.8H12V30H10.8zM12,28.8H13.2V30H12zM14.4,28.8H15.6V30H14.4zM15.6,28.8H16.8V30H15.6zM18,28.8H19.2V30H18zM20.4,28.8H21.6V30H20.4zM21.6,28.8H22.8V30H21.6zM22.8,28.8H24V30H22.8zM25.2,28.8H26.4V30H25.2zM27.6,28.8H28.8V30H27.6zM28.8,28.8H30V30H28.8zM30,28.8H31.2V30H30zM31.2,28.8H32.4V30H31.2zM32.4,28.8H33.6V30H32.4zM33.6,28.8H34.8V30H33.6zM34.8,28.8H36V30H34.8zM38.4,28.8H39.6V30H38.4zM14.4,30H15.6V31.2H14.4zM15.6,30H16.8V31.2H15.6zM16.8,30H18V31.2H16.8zM18,30H19.2V31.2H18zM22.8,30H24V31.2H22.8zM24,30H25.2V31.2H24zM25.2,30H26.4V31.2H25.2zM26.4,30H27.6V31.2H26.4zM27.6,30H28.8V31.2H27.6zM28.8,30H30V31.2H28.8zM33.6,30H34.8V31.2H33.6zM38.4,30H39.6V31.2H38.4zM4.8,31.2H6V32.4H4.8zM6,31.2H7.2V32.4H6zM7.2,31.2H8.4V32.4H7.2zM8.4,31.2H9.6V32.4H8.4zM9.6,31.2H10.8V32.4H9.6zM10.8,31.2H12V32.4H10.8zM12,31.2H13.2V32.4H12zM14.4,31.2H15.6V32.4H14.4zM15.6,31.2H16.8V32.4H15.6zM18,31.2H19.2V32.4H18zM19.2,31.2H20.4V32.4H19.2zM20.4,31.2H21.6V32.4H20.4zM21.6,31.2H22.8V32.4H21.6zM22.8,31.2H24V32.4H22.8zM24,31.2H25.2V32.4H24zM25.2,31.2H26.4V32.4H25.2zM27.6,31.2H28.8V32.4H27.6zM28.8,31.2H30V32.4H28.8zM31.2,31.2H32.4V32.4H31.2zM33.6,31.2H34.8V32.4H33.6zM34.8,31.2H36V32.4H34.8zM36,31.2H37.2V32.4H36zM38.4,31.2H39.6V32.4H38.4zM4.8,32.4H6V33.6H4.8zM12,32.4H13.2V33.6H12zM16.8,32.4H18V33.6H16.8zM19.2,32.4H20.4V33.6H19.2zM20.4,32.4H21.6V33.6H20.4zM24,32.4H25.2V33.6H24zM25.2,32.4H26.4V33.6H25.2zM26.4,32.4H27.6V33.6H26.4zM27.6,32.4H28.8V33.6H27.6zM28.8,32.4H30V33.6H28.8zM33.6,32.4H34.8V33.6H33.6zM4.8,33.6H6V34.8H4.8zM7.2,33.6H8.4V34.8H7.2zM8.4,33.6H9.6V34.8H8.4zM9.6,33.6H10.8V34.8H9.6zM12,33.6H13.2V34.8H12zM14.4,33.6H15.6V34.8H14.4zM15.6,33.6H16.8V34.8H15.6zM16.8,33.6H18V34.8H16.8zM20.4,33.6H21.6V34.8H20.4zM25.2,33.6H26.4V34.8H25.2zM27.6,33.6H28.8V34.8H27.6zM28.8,33.6H30V34.8H28.8zM30,33.6H31.2V34.8H30zM31.2,33.6H32.4V34.8H31.2zM32.4,33.6H33.6V34.8H32.4zM33.6,33.6H34.8V34.8H33.6zM34.8,33.6H36V34.8H34.8zM37.2,33.6H38.4V34.8H37.2zM4.8,34.8H6V36H4.8zM7.2,34.8H8.4V36H7.2zM8.4,34.8H9.6V36H8.4zM9.6,34.8H10.8V36H9.6zM12,34.8H13.2V36H12zM18,34.8H19.2V36H18zM19.2,34.8H20.4V36H19.2zM20.4,34.8H21.6V36H20.4zM21.6,34.8H22.8V36H21.6zM22.8,34.8H24V36H22.8zM24,34.8H25.2V36H24zM25.2,34.8H26.4V36H25.2zM26.4,34.8H27.6V36H26.4zM30,34.8H31.2V36H30zM32.4,34.8H33.6V36H32.4zM38.4,34.8H39.6V36H38.4zM4.8,36H6V37.2H4.8zM7.2,36H8.4V37.2H7.2zM8.4,36H9.6V37.2H8.4zM9.6,36H10.8V37.2H9.6zM12,36H13.2V37.2H12zM16.8,36H18V37.2H16.8zM22.8,36H24V37.2H22.8zM26.4,36H27.6V37.2H26.4zM28.8,36H30V37.2H28.8zM30,36H31.2V37.2H30zM34.8,36H36V37.2H34.8zM36,36H37.2V37.2H36zM37.2,36H38.4V37.2H37.2zM38.4,36H39.6V37.2H38.4zM4.8,37.2H6V38.4H4.8zM12,37.2H13.2V38.4H12zM16.8,37.2H18V38.4H16.8zM19.2,37.2H20.4V38.4H19.2zM20.4,37.2H21.6V38.4H20.4zM25.2,37.2H26.4V38.4H25.2zM28.8,37.2H30V38.4H28.8zM30,37.2H31.2V38.4H30zM31.2,37.2H32.4V38.4H31.2zM32.4,37.2H33.6V38.4H32.4zM34.8,37.2H36V38.4H34.8zM37.2,37.2H38.4V38.4H37.2zM38.4,37.2H39.6V38.4H38.4zM4.8,38.4H6V39.6H4.8zM6,38.4H7.2V39.6H6zM7.2,38.4H8.4V39.6H7.2zM8.4,38.4H9.6V39.6H8.4zM9.6,38.4H10.8V39.6H9.6zM10.8,38.4H12V39.6H10.8zM12,38.4H13.2V39.6H12zM14.4,38.4H15.6V39.6H14.4zM15.6,38.4H16.8V39.6H15.6zM19.2,38.4H20.4V39.6H19.2zM20.4,38.4H21.6V39.6H20.4zM22.8,38.4H24V39.6H22.8zM25.2,38.4H26.4V39.6H25.2zM26.4,38.4H27.6V39.6H26.4zM28.8,38.4H30V39.6H28.8zM30,38.4H31.2V39.6H30zM32.4,38.4H33.6V39.6H32.4zM33.6,38.4H34.8V39.6H33.6zM34.8,38.4H36V39.6H34.8zM37.2,38.4H38.4V39.6H37.2z" id="qr-path" fill="#000000" fill-opacity="1" fill-rule="nonzero" stroke="none" /></svg>